PathFileType	4	(x/y/z)	S10_P20_T25
DataRate	CameraRate	NumFrames	NumMarkers	Units	OrigDataRate	OrigDataStartFrame	OrigNumFrames
240	240	9	51	mm	240	199	396
Frame#	Time	Sternum			R.Acromium			L.Acromium			Top.Head			R.ASIS			L.ASIS			R.PSIS			L.PSIS			R.Great.Tro			L.Great.Tro			R.Iliac.Crest			L.Iliac.Crest			V.Sacral			R.Thigh.Upper.Post			R.Thigh.Lower.Ant			R.Thigh.Lower.Post			R.Thigh.Upper.Ant			R.Knee.Lat			R.Knee.Med			R.Shank.Upper.Post			R.Shank.Lower.Ant			R.Shank.Lower.Post			R.Shank.Upper.Ant			R.Ankle.Lat			R.Ankle.Med			R.Heel.Upper			R.Heel.Med			R.Heel.Lat			R.Toe.Lat			R.Toe.Med			R.Toe.Tip			L.Thigh.Upper.Post			L.Thigh.Lower.Ant			L.Thigh.Lower.Post			L.Thigh.Upper.Ant			L.Knee.Lat			L.Knee.Med			L.Shank.Upper.Post			L.Shank.Lower.Ant			L.Shank.Lower.Post			L.Shank.Upper.Ant			L.Ankle.Lat			L.Ankle.Med			L.Heel.Upper			L.Heel.Med			L.Heel.Lat			L.Toe.Lat			L.Toe.Med			L.Toe.Tip			Cervical.Spine			Back			
		X1	Y1	Z1	X2	Y2	Z2	X3	Y3	Z3	X4	Y4	Z4	X5	Y5	Z5	X6	Y6	Z6	X7	Y7	Z7	X8	Y8	Z8	X9	Y9	Z9	X10	Y10	Z10	X11	Y11	Z11	X12	Y12	Z12	X13	Y13	Z13	X14	Y14	Z14	X15	Y15	Z15	X16	Y16	Z16	X17	Y17	Z17	X18	Y18	Z18	X19	Y19	Z19	X20	Y20	Z20	X21	Y21	Z21	X22	Y22	Z22	X23	Y23	Z23	X24	Y24	Z24	X25	Y25	Z25	X26	Y26	Z26	X27	Y27	Z27	X28	Y28	Z28	X29	Y29	Z29	X30	Y30	Z30	X31	Y31	Z31	X32	Y32	Z32	X33	Y33	Z33	X34	Y34	Z34	X35	Y35	Z35	X36	Y36	Z36	X37	Y37	Z37	X38	Y38	Z38	X39	Y39	Z39	X40	Y40	Z40	X41	Y41	Z41	X42	Y42	Z42	X43	Y43	Z43	X44	Y44	Z44	X45	Y45	Z45	X46	Y46	Z46	X47	Y47	Z47	X48	Y48	Z48	X49	Y49	Z49	X50	Y50	Z50	X51	Y51	Z51	

199	0.825	-225.38	1295.8	298.82	-323.68	1451	468.54	-372.13	1477.1	171.35	-358.69	1769.4	342.29	-267.12	1021.4	420.13	-292.05	1040.9	191.78	-476.07	1041.7	355.94	-480.43	1049.1	275.33	-332.72	942.5	499.48	-353.71	979.24	137.72	-358.29	1101.9	473.86	-363.95	1112.1	172.53	-498.82	1010.7	321.63	-334.87	728.04	480.64	-287.78	649.19	435.27	-348.46	640.46	466.52	-271.32	738.27	445.72	-369.32	517.18	424.67	-386.54	527.18	298.63	-473.6	304.07	426.43	-421.18	232.87	404.21	-484.79	231.12	418.9	-403.43	307.83	411.11	-486.68	123.19	393.88	-485.15	135.42	315.98	-561.23	78.3	351.79	-554.82	48.564	325	-555.12	54.342	386.74	-381.06	39.76	421.72	-358.19	41.606	309.71	-296.42	51.588	349.08	-287.69	699.16	135.28	-189.42	650.21	146.91	-251.98	611.5	154	-217.98	734.55	127.57	-201.49	546.44	156.17	-161.15	544.2	282.2	-328.27	372.57	168.45	-296.19	267.3	167.31	-350.83	298.65	175.85	-273.07	340.3	159.95	-366.13	171.33	180.6	-333.45	172.86	260.75	-429.57	161.43	235.68	-424.96	126.42	266.4	-438.8	133.2	204.14	-286.44	63.98	138.42	-241.95	58.744	238.77	-196.11	57.152	184.06	-422.99	1510.5	342.47	-508.71	1302.9	342.07
200	0.82917	-220.18	1296	298.44	-317.91	1451.5	468.19	-367.3	1476.9	171.12	-353.14	1769.5	341.81	-261.88	1021.3	419.97	-286.99	1041.1	191.73	-470.84	1041.8	355.85	-475.3	1049.3	275.27	-327.78	942.37	499.31	-348.45	979.73	137.53	-352.75	1101.8	473.74	-358.85	1112.4	172.54	-493.6	1010.9	321.54	-331.65	728.08	480.48	-285.25	648.87	435.08	-345.94	640.62	466.41	-268.05	737.79	445.54	-368.12	517.5	424.8	-385.45	527.58	298.68	-472.99	304.66	426.51	-420.7	233.4	404.36	-484.3	231.74	418.96	-402.82	308.34	411.31	-486.31	123.74	393.91	-484.74	135.99	316.06	-560.9	79.097	351.85	-554.54	49.371	325.04	-554.92	55.069	386.75	-380.94	39.758	421.73	-358.08	41.626	309.74	-296.25	51.387	349.12	-281.88	699.74	135.08	-183.68	650.81	147.39	-246.31	612.1	154.03	-212.15	735.14	127.84	-195.51	546.85	156.58	-155.94	545.03	282.66	-318.34	369.62	168.18	-283.45	265.26	167.09	-338.94	295.12	175.47	-262.3	338.84	159.83	-350.78	167.32	179.96	-318.23	169.58	260.29	-414.08	155.33	234.88	-408.42	120.41	265.6	-422.34	126.85	203.34	-267.77	62.457	137.86	-223.29	58.483	238.31	-177.35	58.349	183.66	-417.64	1510.6	342.37	-503.3	1303	342.56
201	0.83333	-214.95	1296.1	298.06	-312.15	1451.9	467.83	-362.43	1476.7	170.89	-347.6	1769.6	341.32	-256.63	1021.1	419.8	-281.92	1041.3	191.66	-465.61	1041.9	355.73	-470.15	1049.5	275.18	-322.85	942.22	499.13	-343.17	980.15	137.33	-347.18	1101.7	473.6	-353.72	1112.6	172.53	-488.38	1010.9	321.42	-328.44	728.11	480.33	-282.72	648.54	434.91	-343.43	640.78	466.3	-264.79	737.32	445.36	-366.9	517.83	424.95	-384.35	527.99	298.75	-472.36	305.26	426.6	-420.21	233.93	404.52	-483.8	232.36	419.03	-402.19	308.87	411.51	-485.94	124.3	393.95	-484.28	136.57	316.16	-560.57	79.919	351.92	-554.25	50.199	325.09	-554.71	55.814	386.76	-380.81	39.753	421.74	-357.96	41.65	309.78	-296.07	51.187	349.18	-276.18	700.24	134.92	-178.07	651.29	147.87	-240.77	612.61	154.08	-206.41	735.63	128.14	-189.66	547.17	156.99	-150.88	545.75	283.13	-308.39	366.63	167.88	-270.66	263.28	166.88	-326.98	291.6	175.07	-251.53	337.38	159.71	-335.31	163.4	179.31	-302.92	166.39	259.83	-398.38	149.34	234.06	-391.7	114.55	264.8	-405.67	120.63	202.51	-249.03	61.101	137.35	-204.64	58.403	237.91	-158.63	59.718	183.34	-412.28	1510.6	342.25	-497.88	1303.1	343.02
202	0.8375	-209.72	1296.2	297.67	-306.4	1452.2	467.45	-357.54	1476.4	170.64	-342.06	1769.6	340.83	-251.37	1020.9	419.62	-276.81	1041.5	191.58	-460.36	1041.9	355.58	-464.98	1049.6	275.06	-317.92	942.04	498.93	-337.89	980.52	137.11	-341.6	1101.5	473.45	-348.56	1112.7	172.5	-483.14	1011	321.27	-325.22	728.13	480.19	-280.18	648.2	434.77	-340.92	640.94	466.21	-261.53	736.83	445.19	-365.66	518.17	425.09	-383.23	528.41	298.83	-471.71	305.86	426.7	-419.7	234.48	404.69	-483.28	233	419.11	-401.55	309.39	411.73	-485.55	124.87	394	-483.8	137.16	316.26	-560.23	80.764	351.99	-553.96	51.048	325.14	-554.48	56.579	386.78	-380.68	39.745	421.75	-357.84	41.675	309.82	-295.88	50.984	349.24	-270.58	700.66	134.81	-172.59	651.63	148.37	-235.34	613.02	154.17	-200.77	736	128.46	-183.94	547.38	157.4	-145.96	546.33	283.61	-298.4	363.63	167.56	-257.83	261.36	166.66	-314.96	288.1	174.65	-240.75	335.94	159.58	-319.72	159.6	178.66	-287.55	163.33	259.37	-382.47	143.48	233.21	-374.81	108.86	263.99	-388.81	114.57	201.66	-230.26	59.932	136.89	-186.02	58.515	237.57	-139.97	61.271	183.1	-406.93	1510.6	342.12	-492.45	1303.1	343.47
203	0.84167	-204.46	1296.2	297.28	-300.67	1452.5	467.07	-352.61	1476.1	170.39	-336.54	1769.6	340.33	-246.11	1020.7	419.42	-271.68	1041.6	191.48	-455.1	1041.9	355.41	-459.79	1049.7	274.92	-312.99	941.84	498.73	-332.59	980.82	136.89	-335.99	1101.3	473.27	-343.37	1112.9	172.45	-477.89	1011	321.09	-321.99	728.15	480.06	-277.64	647.86	434.64	-338.41	641.1	466.13	-258.27	736.33	445.04	-364.39	518.52	425.24	-382.09	528.84	298.91	-471.05	306.48	426.8	-419.17	235.03	404.87	-482.74	233.65	419.2	-400.88	309.92	411.94	-485.15	125.46	394.06	-483.28	137.77	316.37	-559.89	81.632	352.08	-553.65	51.92	325.2	-554.25	57.363	386.8	-380.55	39.736	421.78	-357.7	41.701	309.87	-295.68	50.779	349.31	-265.1	700.99	134.73	-167.24	651.85	148.86	-230.04	613.32	154.29	-195.23	736.25	128.79	-178.36	547.5	157.82	-141.17	546.78	284.11	-288.39	360.61	167.21	-244.99	259.51	166.44	-302.89	284.64	174.21	-229.98	334.52	159.46	-304.04	155.93	178.01	-272.13	160.39	258.92	-366.38	137.77	232.36	-357.76	103.36	263.17	-371.77	108.69	200.79	-211.45	58.964	136.5	-167.45	58.829	237.3	-121.38	63.018	182.94	-401.57	1510.6	341.97	-487.01	1303.1	343.88
204	0.84583	-199.2	1296.1	296.88	-294.94	1452.7	466.67	-347.65	1475.8	170.13	-331.03	1769.5	339.83	-240.84	1020.4	419.21	-266.52	1041.7	191.37	-449.83	1041.8	355.2	-454.57	1049.7	274.74	-308.06	941.6	498.51	-327.28	981.07	136.65	-330.36	1101.1	473.08	-338.15	1113	172.38	-472.62	1011	320.88	-318.76	728.16	479.94	-275.09	647.51	434.53	-335.89	641.26	466.05	-255	735.82	444.9	-363.1	518.88	425.39	-380.9	529.27	299	-470.36	307.12	426.9	-418.62	235.58	405.05	-482.18	234.32	419.29	-400.2	310.45	412.15	-484.74	126.06	394.13	-482.72	138.38	316.49	-559.54	82.522	352.17	-553.34	52.813	325.26	-554.02	58.168	386.83	-380.41	39.724	421.81	-357.55	41.725	309.93	-295.48	50.569	349.39	-259.73	701.24	134.68	-162.02	651.94	149.35	-224.86	613.53	154.42	-189.79	736.39	129.13	-172.9	547.52	158.22	-136.52	547.1	284.61	-278.36	357.6	166.84	-232.13	257.74	166.23	-290.77	281.24	173.74	-219.23	333.13	159.33	-288.28	152.41	177.38	-256.67	157.6	258.47	-350.14	132.23	231.49	-340.59	98.068	262.36	-354.58	103.01	199.92	-192.64	58.213	136.16	-148.94	59.357	237.09	-102.88	64.969	182.87	-396.2	1510.6	341.81	-481.58	1303	344.27
205	0.85	-193.91	1296	296.48	-289.22	1452.9	466.27	-342.66	1475.4	169.86	-325.53	1769.4	339.33	-235.55	1020.1	418.99	-261.33	1041.8	191.24	-444.54	1041.8	354.97	-449.33	1049.7	274.54	-303.12	941.34	498.29	-321.95	981.25	136.4	-324.7	1100.8	472.88	-332.9	1113.1	172.29	-467.34	1010.9	320.65	-315.51	728.16	479.83	-272.52	647.15	434.44	-333.37	641.42	465.99	-251.73	735.3	444.77	-361.77	519.25	425.54	-379.67	529.7	299.09	-469.66	307.76	427	-418.05	236.15	405.25	-481.61	235.01	419.39	-399.49	310.99	412.37	-484.31	126.67	394.21	-482.14	139.01	316.6	-559.18	83.434	352.26	-553.03	53.727	325.32	-553.77	58.993	386.85	-380.27	39.713	421.84	-357.38	41.748	309.99	-295.27	50.354	349.47	-254.47	701.38	134.67	-156.93	651.91	149.83	-219.8	613.62	154.58	-184.46	736.41	129.47	-167.57	547.43	158.63	-132	547.28	285.12	-268.31	354.61	166.44	-219.27	256.08	166.03	-278.61	277.9	173.27	-208.49	331.78	159.21	-272.45	149.04	176.75	-241.19	154.98	258.05	-333.77	126.87	230.62	-323.33	92.998	261.55	-337.26	97.541	199.04	-173.85	57.692	135.89	-130.52	60.105	236.96	-84.487	67.131	182.88	-390.83	1510.5	341.63	-476.13	1302.9	344.64
206	0.85417	-188.61	1295.8	296.07	-283.51	1453	465.86	-337.64	1475	169.58	-320.03	1769.3	338.83	-230.25	1019.7	418.76	-256.1	1041.8	191.1	-439.24	1041.7	354.72	-444.07	1049.6	274.32	-298.18	941.06	498.07	-316.6	981.36	136.14	-319.03	1100.5	472.66	-327.61	1113.1	172.18	-462.05	1010.8	320.39	-312.24	728.15	479.74	-269.94	646.79	434.36	-330.84	641.57	465.93	-248.44	734.77	444.67	-360.41	519.62	425.69	-378.39	530.14	299.18	-468.92	308.41	427.1	-417.44	236.71	405.44	-481.02	235.7	419.5	-398.74	311.52	412.59	-483.87	127.29	394.29	-481.52	139.65	316.72	-558.81	84.368	352.36	-552.71	54.664	325.37	-553.51	59.84	386.88	-380.13	39.702	421.88	-357.2	41.767	310.05	-295.05	50.132	349.56	-249.32	701.44	134.69	-151.96	651.75	150.29	-214.86	613.61	154.74	-179.23	736.31	129.82	-162.36	547.26	159.02	-127.61	547.33	285.63	-258.25	351.65	166.03	-206.43	254.52	165.82	-266.43	274.65	172.78	-197.77	330.48	159.09	-256.57	145.85	176.15	-225.71	152.53	257.64	-317.3	121.72	229.74	-305.99	88.166	260.75	-319.84	92.307	198.17	-155.09	57.41	135.68	-112.2	61.08	236.9	-66.225	69.508	182.99	-385.46	1510.3	341.43	-470.69	1302.7	344.98
207	0.85833	-183.3	1295.6	295.66	-277.81	1453	465.44	-332.6	1474.5	169.29	-314.54	1769.1	338.32	-224.93	1019.3	418.51	-250.84	1041.7	190.93	-433.92	1041.5	354.44	-438.78	1049.6	274.07	-293.23	940.75	497.84	-311.24	981.42	135.87	-313.33	1100.1	472.43	-322.29	1113.1	172.05	-456.74	1010.7	320.11	-308.96	728.14	479.66	-267.35	646.43	434.31	-328.29	641.73	465.89	-245.14	734.23	444.58	-358.99	520	425.83	-377.04	530.57	299.27	-468.16	309.08	427.19	-416.81	237.28	405.65	-480.4	236.42	419.6	-397.97	312.05	412.8	-483.42	127.92	394.37	-480.89	140.3	316.84	-558.41	85.324	352.46	-552.39	55.622	325.42	-553.24	60.708	386.91	-379.99	39.692	421.93	-357.02	41.783	310.12	-294.84	49.901	349.65	-244.29	701.4	134.74	-147.12	651.46	150.74	-210.05	613.5	154.91	-174.1	736.1	130.15	-157.25	546.98	159.4	-123.34	547.25	286.15	-248.18	348.73	165.61	-193.62	253.07	165.63	-254.23	271.5	172.28	-187.09	329.24	158.97	-240.67	142.85	175.57	-210.27	150.27	257.26	-300.75	116.79	228.87	-288.6	83.586	259.98	-302.35	87.321	197.31	-136.39	57.376	135.54	-94.028	62.285	236.91	-48.12	72.102	183.19	-380.07	1510.2	341.22	-465.24	1302.5	345.29
